<?xml version="1.0" encoding="utf-8"?>
<!-- Generator: Adobe Illustrator 19.0.0, SVG Export Plug-In . SVG Version: 6.00 Build 0)  -->
<svg version="1.1" id="Layer_1" xmlns="http://www.w3.org/2000/svg" xmlns:xlink="http://www.w3.org/1999/xlink" x="0px" y="0px"
	 viewBox="102 -720.2 604.5 1741.2" style="enable-background:new 102 -720.2 604.5 1741.2;" xml:space="preserve">
<style type="text/css">
	.st0{fill:#005F15;}
	.st1{fill:#F3C38A;}
	.st2{fill:#8CCA91;}
	.st3{clip-path:url(#SVGID_2_);fill:#8CCA91;}
	.st4{clip-path:url(#SVGID_4_);fill:#8CCA91;}
	.st5{fill:#FFFFFF;}
	.st6{clip-path:url(#SVGID_6_);fill:#333333;}
	.st7{clip-path:url(#SVGID_8_);fill:#333333;}
	
		.st8{opacity:0.2;clip-path:url(#SVGID_10_);fill:#8CCA91;stroke:#000000;stroke-width:6;stroke-linecap:round;stroke-miterlimit:10;enable-background:new    ;}
	.st9{fill:#BBBBBB;}
	.st10{fill:#56AD48;}
	.st11{fill:#666666;}
	.st12{opacity:0.2;clip-path:url(#SVGID_12_);enable-background:new    ;}
	.st13{fill:#A98C00;}
	.st14{fill:#AAAAAA;}
	.st15{clip-path:url(#SVGID_14_);fill:#888888;}
	
		.st16{clip-path:url(#SVGID_16_);fill:none;stroke:#000000;stroke-width:6;stroke-linecap:round;stroke-miterlimit:10;stroke-opacity:0.2;}
	
		.st17{clip-path:url(#SVGID_18_);fill:none;stroke:#000000;stroke-width:6;stroke-linecap:round;stroke-miterlimit:10;stroke-opacity:0.2;}
	.st18{clip-path:url(#SVGID_20_);fill:#333333;}
</style>
<g>
	<path class="st0" d="M421-58.7c0,0,45.5-54.4,108.5-44.8l-50,54.7L421-58.7z"/>
	<path id="head" class="st1" d="M167.6-339.1c0,0-36-82.5-15-183s60-213,301.5-196.5s259.5,274.5,250.5,322.5s-25.5,163.5-210,259.5
		L516-75.2c0,0-34,30-52,26l-27.5-68C436.5-117.2,256.6-176.5,167.6-339.1z"/>
	<g id="eyes">
		<g>
			<g id="right_eye_21_">
				<path id="right_eye_23_" class="st2" d="M269.5-345.2c0,0,69.5-3.5,107,3.5c0,0,9.5-109.5-58.5-108.5S269.5-345.2,269.5-345.2z"
					/>
				<g>
					<g>
						<g>
							<g>
								<g>
									<g>
										<defs>
											<path id="SVGID_1_" d="M269.5-345.2c0,0,69.5-3.5,107,3.5c0,0,9.5-109.5-58.5-108.5S269.5-345.2,269.5-345.2z"/>
										</defs>
										<clipPath id="SVGID_2_">
											<use xlink:href="#SVGID_1_"  style="overflow:visible;"/>
										</clipPath>
										<ellipse id="right_eyeball_7_" class="st3" cx="332.7" cy="-377.2" rx="31.4" ry="44.2"/>
									</g>
								</g>
							</g>
						</g>
					</g>
				</g>
			</g>
			<g id="left_eye_21_">
				<path id="left_eye_23_" class="st2" d="M167.9-342.9l52.9-7l-0.8-6.7l0,0c0,0-14-137-68.5-82c-1.7,1.7-3.2,3.3-4.6,5
					c2.6,36.3,10.4,65.1,15.7,81l0,0v0.1c1.3,3.9,2.4,7,3.3,9.3l0,0l0.2,0.7l0.7-0.1c0.1,0.1,0.2,0.1,0.2,0.1L167.9-342.9z"/>
				<g>
					<g>
						<g>
							<g>
								<g>
									<g>
										<defs>
											<path id="SVGID_3_" d="M191.5-412l-48.9,21.4l2.6,6.3l0,0c0,0,51.2,127.8,88.5,59.8c1.1-2.1,2.2-4,3.1-6.1
												c-12.5-34.2-28-59.7-37.5-73.5l0,0l0,0c-2.3-3.4-4.2-6.1-5.7-8l0,0l-0.4-0.6l-0.7,0.2c-0.1,0-0.2-0.1-0.2-0.1L191.5-412z
												"/>
										</defs>
										<clipPath id="SVGID_4_">
											<use xlink:href="#SVGID_3_"  style="overflow:visible;"/>
										</clipPath>
										
											<ellipse id="left_eyeball_7_" transform="matrix(-5.590406e-02 -0.9984 0.9984 -5.590406e-02 570.0927 -212.468)" class="st4" cx="184.6" cy="-375.8" rx="42.7" ry="25.4"/>
									</g>
								</g>
							</g>
						</g>
					</g>
				</g>
			</g>
		</g>
		<g>
			<g id="right_eye_18_">
				<path id="right_eye_20_" class="st5" d="M269.5-345.2c0,0,69.5-3.5,107,3.5c0,0,9.5-109.5-58.5-108.5S269.5-345.2,269.5-345.2z"
					/>
				<g>
					<g>
						<g>
							<g>
								<g>
									<g>
										<defs>
											<path id="SVGID_5_" d="M269.5-345.2c0,0,69.5-3.5,107,3.5c0,0,9.5-109.5-58.5-108.5S269.5-345.2,269.5-345.2z"/>
										</defs>
										<clipPath id="SVGID_6_">
											<use xlink:href="#SVGID_5_"  style="overflow:visible;"/>
										</clipPath>
										<ellipse id="right_eyeball_6_" class="st6" cx="300.5" cy="-377.2" rx="28.5" ry="44.2"/>
									</g>
								</g>
							</g>
						</g>
					</g>
				</g>
			</g>
			<g id="left_eye_18_">
				<path id="left_eye_20_" class="st5" d="M167.9-342.9l52.9-7l-0.8-6.7l0,0c0,0-14-137-68.5-82c-1.7,1.7-3.2,3.3-4.6,5
					c2.6,36.3,10.4,65.1,15.7,81l0,0v0.1c1.3,3.9,2.4,7,3.3,9.3l0,0l0.2,0.7l0.7-0.1c0.1,0.1,0.2,0.1,0.2,0.1L167.9-342.9z"/>
				<g>
					<g>
						<defs>
							<path id="SVGID_7_" d="M167.9-342.9l52.9-7l-0.8-6.7l0,0c0,0-14-137-68.5-82c-1.7,1.7-3.2,3.3-4.6,5
								c2.6,36.3,10.4,65.1,15.7,81l0,0v0.1c1.3,3.9,2.4,7,3.3,9.3l0,0l0.2,0.7l0.7-0.1c0.1,0.1,0.2,0.1,0.2,0.1L167.9-342.9z"/>
						</defs>
						<clipPath id="SVGID_8_">
							<use xlink:href="#SVGID_7_"  style="overflow:visible;"/>
						</clipPath>
						<path id="left_eyeball_6_" class="st7" d="M177.3-333.2c-12.2,0.7-22.9-17.8-24-41.3c-1-23.5,8-43.2,20.2-43.9
							c12.2-0.7,22.9,17.8,24,41.3C198.6-353.5,189.5-333.9,177.3-333.2z"/>
					</g>
				</g>
			</g>
		</g>
	</g>
	<path id="right_foot" class="st1" d="M521,657.3c0,0,1,53,0,57c0,0-27.1,46,0.4,69c0,0,10.6,58,7.1,87c0,0,40.5,10,67.5,0
		c0,0,23-138,11-213C607,657.3,552,639.3,521,657.3z"/>
	<path id="left_foot" class="st1" d="M497.7,666c0,0-2.2-1-5.6-2.3c-0.3-7.5-0.7-14.3-1.4-20.1c0,0-60.1-5.1-73.7,5.7
		c0,0,4,26.7,4,47.8c0,0-26,44.6-9,64.9c0,0,12,14.3,18,17.5c0,0,5.3,43.1,4.3,91.4c0,0,9.7,2.6,26.5,1.4c8.7,0.6,20.4,0.8,28.5-1.1
		C489.3,871.3,507.3,701.3,497.7,666z"/>
	<g id="chaddi_2_">
		<path id="chaddi" class="st2" d="M375.3,420c0,0-16.9,173.7-24.8,220.3c0,0,35.5,29.3,112.8,20.7v6.7c0,0,120.6,21.3,243-19.3
			c0,0,1.7-253.3-5.7-282.7C700.7,365.7,392.6,398.3,375.3,420z"/>
		<g>
			<g>
				<g>
					<g>
						<g>
							<g>
								<defs>
									<path id="SVGID_9_" d="M375.3,420c0,0-16.9,173.7-24.8,220.3c0,0,35.5,29.3,112.8,20.7v6.7c0,0,120.6,21.3,243-19.3
										c0,0,1.7-253.3-5.7-282.7C700.7,365.7,392.6,398.3,375.3,420z"/>
								</defs>
								<clipPath id="SVGID_10_">
									<use xlink:href="#SVGID_9_"  style="overflow:visible;"/>
								</clipPath>
								<path class="st8" d="M460.5,664.3c0,0,6.8-129.3,4.8-193.3"/>
							</g>
						</g>
					</g>
				</g>
			</g>
		</g>
	</g>
	<g id="socks">
		<path id="left_sock" class="st9" d="M426.5,863.8c0,0,35.5,7.5,68-2.5l-2.5,11.5c0,0,4.5,4.5,8.5,12.5c0,0,1.5,8-8.5,15
			c0,0-3,4.5,1.5,7c0,0,9.2,6,5.5,10.3c0,0-10,12.3-8.8,17.7c1.2,5.3-0.8,9.3-0.8,9.3l-65.5,2.8c0,0,2.3-9.5,1.5-14.5
			c0,0-3.7-7.7-2.8-12.3s5.7-7.3,5.7-7.3s3.3-3.8-3.8-9.8c-7.2-6,0-13.2,1-13.5s8.3-5.2-1.5-10.3C414,874.5,426.5,863.8,426.5,863.8
			z"/>
		<path id="right_sock" class="st9" d="M516.7,864.5c0,0,52.5,10.8,89.8,0c0,0,1,6.8-3,11.8c0,0,0.3,9.2,8.5,13.8
			c0,0,9,3.8-5.2,20.8c0,0-2.5,5.5,2,10.2c0,0,5.8,6.7-7,16.7c0,0-29.2,12-73.3,3.5l-5.8-4c0,0-8.2-7.2-5-11.3c0,0,9-12.2,3.7-14.3
			c0,0-10.3-6.3-7.5-13c0,0,0.7-3.8,5-10.2c0,0,3.3-5.9-3.7-13.7C515.2,874.8,511.2,867.2,516.7,864.5z"/>
	</g>
	<path id="shirt" class="st10" d="M423-60.7c0,0,25.4,8.4,57.3-8.3c0,0,28.7-12.7,43.3-35.7c0,0,147.9,20.6,165.9,238.1
		c0,0,14,90,16.7,235.5c0,0-120.8,59.4-335.3,50.9c0,0-21.9-175.4-20.4-293.9C352.1,7.4,423-60.7,423-60.7z"/>
	<g id="shoes">
		<path id="left_shoe" class="st11" d="M422.5,941.3c0,0-42.5,5-46.5,31s1,42,40.5,38c0,0,69.5-4,86.5-13c0,0,8.6-56.5-12.5-58.5
			L422.5,941.3z"/>
		<g>
			<g>
				<g>
					<g>
						<g>
							<g>
								<defs>
									<path id="SVGID_11_" d="M422.5,941.3c0,0-42.5,5-46.5,31s1,42,40.5,38c0,0,69.5-4,86.5-13c0,0,8.6-56.5-12.5-58.5
										L422.5,941.3z"/>
								</defs>
								<clipPath id="SVGID_12_">
									<use xlink:href="#SVGID_11_"  style="overflow:visible;"/>
								</clipPath>
								<path id="right_shoe_1_" class="st12" d="M523,939.8c0,0-76,16-52.5,65c0,0,53.5,25.5,124,0c0,0,17.5-24,0-68.5
									C594.5,936.3,545,943.3,523,939.8z"/>
							</g>
						</g>
					</g>
				</g>
			</g>
		</g>
		<path id="right_shoe" class="st11" d="M531,938.8c0,0-76,16-52.5,65c0,0,53.5,25.5,124,0c0,0,17.5-24,0-68.5
			C602.5,935.3,553,942.3,531,938.8z"/>
	</g>
	<path id="lathi" class="st13" d="M350.5,392.3c0,0-5.5,36,0,46c0,0,7.5,29-10.5,60c0,0-14.9,40.1,19.4,73.4
		c0,0,13.9,21.3,7.3,132.6c0,0-1.3,100-3.3,134.7c0,0,0.7,21,2.7,30.7c0,0,4,26.7-3.7,57.7c0,0-20.7,70.7,16.7,93.7
		c0,0,15-12.3,11.7-45.7c0,0-0.4-32,0.5-61.3c0,0,6.8-81,2.5-126.3c0,0-5.7-88,4.3-109c0,0,20-53,2-85.7c0,0-12-15.7-3-43.3
		c0,0,14.7-37.3,3-75.3c0,0-6.3-42-1-64.7c0,0,16.3-32.7-15.3-36c-31.7-3.3-33.1,18-33.1,18"/>
	<g id="whiskers">
		<path id="daadi" class="st14" d="M198.3-204.7c0,0-0.1,252,125.9,472c0,0,90.1-240,116.1-462l-191-41.5L198.3-204.7z"/>
		<g id="mooch_shadow">
			<g>
				<g>
					<g>
						<g>
							<g>
								<defs>
									<path id="SVGID_13_" d="M198.3-204.7c0,0-0.1,252,125.9,472c0,0,90.1-240,116.1-462l-191-41.5L198.3-204.7z"/>
								</defs>
								<clipPath id="SVGID_14_">
									<use xlink:href="#SVGID_13_"  style="overflow:visible;"/>
								</clipPath>
								<path id="mooch_1_" class="st15" d="M252.9-291.8c0,0,158.8-27.3,220.1,121.7c0,0-113.7,45.7-220.1-47.2
									c0,0-49.9,64.9-135.9,44.3C117-173.1,124.8-296.3,252.9-291.8z"/>
							</g>
						</g>
					</g>
				</g>
			</g>
		</g>
		<path id="mooch" class="st14" d="M252.7-287c0,0,176-24.7,244,110c0,0-126,41.3-244-42.7c0,0-55.3,58.7-150.7,40
			C102-179.7,110.7-291,252.7-287z"/>
	</g>
	<path id="nose" class="st1" d="M271-341.2c0,0-127.9-42.5-125,42.5c3,85,159.5,11.5,160.5,10"/>
	<path id="hand" class="st1" d="M502,168.3c0,0-4,41.3-4,58.7c0,0-107.3,50.7-144.7,59.3c0,0-59.3,26.7-46.7,58
		c0,0-20.6,55.2,20.3,52.3c0,0,16,15.3,33.3,3.3c0,0,9.3,12,26.3,7.7c0,0,24.8-7.8,10-25.3c0,0-5.3-4.7-14.5,1.7
		c0,0,17.2-10.9,22.2-27.2c0,0,71.6-26.5,147.6-58.5c0,0,26-16,28-42l3.5-85C583.5,171.3,535,180.3,502,168.3z"/>
	<g id="fingers">
		<g>
			<g>
				<g>
					<g>
						<g>
							<defs>
								<path id="SVGID_15_" d="M502,168.3c0,0-4,41.3-4,58.7c0,0-107.3,50.7-144.7,59.3c0,0-59.3,26.7-46.7,58
									c0,0-20.6,55.2,20.3,52.3c0,0,16,15.3,33.3,3.3c0,0,9.3,12,26.3,7.7c0,0,24.8-7.8,10-25.3c0,0-5.3-4.7-14.5,1.7
									c0,0,17.2-10.9,22.2-27.2c0,0,71.6-26.5,147.6-58.5c0,0,26-16,28-42l3.5-85C583.5,171.3,535,180.3,502,168.3z"/>
							</defs>
							<clipPath id="SVGID_16_">
								<use xlink:href="#SVGID_15_"  style="overflow:visible;"/>
							</clipPath>
							<path class="st16" d="M360.3,400c0,0-16.1-19.4-1.3-47.4"/>
						</g>
					</g>
				</g>
			</g>
		</g>
		<g>
			<g>
				<g>
					<g>
						<g>
							<defs>
								<path id="SVGID_17_" d="M502,168.3c0,0-4,41.3-4,58.7c0,0-107.3,50.7-144.7,59.3c0,0-59.3,26.7-46.7,58
									c0,0-20.6,55.2,20.3,52.3c0,0,16,15.3,33.3,3.3c0,0,9.3,12,26.3,7.7c0,0,24.8-7.8,10-25.3c0,0-5.3-4.7-14.5,1.7
									c0,0,17.2-10.9,22.2-27.2c0,0,71.6-26.5,147.6-58.5c0,0,26-16,28-42l3.5-85C583.5,171.3,535,180.3,502,168.3z"/>
							</defs>
							<clipPath id="SVGID_18_">
								<use xlink:href="#SVGID_17_"  style="overflow:visible;"/>
							</clipPath>
							<path class="st17" d="M332.7,345.6c0,0-16.5,23.2-5.8,51.1"/>
						</g>
					</g>
				</g>
			</g>
		</g>
	</g>
	<g id="third_eye_x3C_Group_x3E_">
		<path id="third_eye" class="st5" d="M201.3-507.3c0,0,25,6,79,0c0,0,2.5-113.3-51.1-92C229.2-599.3,195.7-585.3,201.3-507.3z"/>
		<g>
			<g>
				<g>
					<g>
						<g>
							<g>
								<defs>
									<path id="SVGID_19_" d="M201.3-507.3c0,0,25,6,79,0c0,0,2.5-113.3-51.1-92C229.2-599.3,195.7-585.3,201.3-507.3z"/>
								</defs>
								<clipPath id="SVGID_20_">
									<use xlink:href="#SVGID_19_"  style="overflow:visible;"/>
								</clipPath>
								<ellipse id="third_eyeball" class="st18" cx="230.7" cy="-536.7" rx="25.3" ry="44.2"/>
							</g>
						</g>
					</g>
				</g>
			</g>
		</g>
	</g>
</g>
</svg>
